<svg width="22" height="19" viewBox="0 0 22 19" fill="none" xmlns="http://www.w3.org/2000/svg">
<path fill-rule="evenodd" clip-rule="evenodd" d="M4.125 0L2.29167 5.42857H0V9.5H1.375V19H4.125V16.2857H17.875V19H20.625V9.5H22V5.42857H19.7083L17.875 0H4.125ZM5.5 10.8571C4.74062 10.8571 4.125 11.4648 4.125 12.2143C4.125 12.9638 4.74062 13.5714 5.5 13.5714C6.25938 13.5714 6.875 12.9638 6.875 12.2143C6.875 11.4648 6.25938 10.8571 5.5 10.8571ZM15.8929 2.71429H6.10709L4.27376 8.14286H17.7262L15.8929 2.71429ZM16.5 10.8571C15.7406 10.8571 15.125 11.4648 15.125 12.2143C15.125 12.9638 15.7406 13.5714 16.5 13.5714C17.2594 13.5714 17.875 12.9638 17.875 12.2143C17.875 11.4648 17.2594 10.8571 16.5 10.8571Z" fill="#444444"/>
</svg>
